<svg xmlns="http://www.w3.org/2000/svg" width="1200" height="1500" viewBox="0 0 1200 1500">
  <rect width="1200" height="1500" fill="#F6F1E8"/>
  <rect x="72" y="72" width="1056" height="1356" rx="28" fill="none" stroke="#151515" stroke-width="3"/>
  <text x="90" y="180" font-size="88" font-family="Georgia, 'Times New Roman', serif" font-weight="700" fill="#111111">建议大家花 3 分钟搞懂</text>
  <text x="92" y="315" font-size="86" font-family="Georgia, 'Times New Roman', serif" font-weight="700" fill="#C74A2C">Agent、Skills、Harness</text>
  <text x="92" y="380" font-size="28" font-family="'Microsoft YaHei', sans-serif" fill="#444444">从“只会聊天”到“真正能干活”的 AI 能力栈</text>
  <g transform="translate(120 470)">
    <rect x="0" y="570" width="400" height="220" fill="#E8DED0" stroke="#1A1A1A" stroke-width="3"/>
    <rect x="35" y="470" width="330" height="150" fill="#EAE3D8" stroke="#1A1A1A" stroke-width="3"/>
    <rect x="65" y="360" width="270" height="120" fill="#EFE5DA" stroke="#1A1A1A" stroke-width="3"/>
    <rect x="92" y="265" width="215" height="100" fill="#F3E9DE" stroke="#1A1A1A" stroke-width="3"/>
    <rect x="115" y="180" width="170" height="86" fill="#F7EDE4" stroke="#1A1A1A" stroke-width="3"/>
    <rect x="137" y="110" width="126" height="70" fill="#FBF4EA" stroke="#1A1A1A" stroke-width="3"/>
    <rect x="155" y="55" width="90" height="56" fill="#FFF9F0" stroke="#1A1A1A" stroke-width="3"/>
    <line x1="450" y1="770" x2="450" y2="40" stroke="#111111" stroke-width="4"/>
    <polygon points="450,20 438,52 462,52" fill="#111111"/>
    <text x="478" y="760" font-size="32" font-family="'Microsoft YaHei', sans-serif" fill="#111111">价值递增</text>
  </g>
  <g transform="translate(660 500)">
    <rect x="0" y="0" width="390" height="135" rx="20" fill="#FFF9F1" stroke="#1A1A1A" stroke-width="3"/>
    <text x="26" y="55" font-size="38" font-family="'Microsoft YaHei', sans-serif" font-weight="700" fill="#111111">7 层 AI 系统视角</text>
    <text x="26" y="98" font-size="22" font-family="'Microsoft YaHei', sans-serif" fill="#3A3A3A">不是单点工具，而是组织化能力。</text>
    <rect x="0" y="165" width="390" height="96" rx="20" fill="#C74A2C"/>
    <text x="26" y="220" font-size="34" font-family="'Microsoft YaHei', sans-serif" font-weight="700" fill="#FFF8F2">大脑 · 能力包 · 运行底座</text>
  </g>
  <text x="92" y="1400" font-size="24" font-family="'Microsoft YaHei', sans-serif" fill="#666666">Editorial remake for WeChat article</text>
</svg>
